<?xml version="1.0" encoding="UTF-8" standalone="no"?>
<!-- Created with Inkscape (http://www.inkscape.org/) -->

<svg
   xmlns:dc="http://purl.org/dc/elements/1.1/"
   xmlns:cc="http://creativecommons.org/ns#"
   xmlns:rdf="http://www.w3.org/1999/02/22-rdf-syntax-ns#"
   xmlns:svg="http://www.w3.org/2000/svg"
   xmlns="http://www.w3.org/2000/svg"
   xmlns:sodipodi="http://sodipodi.sourceforge.net/DTD/sodipodi-0.dtd"
   xmlns:inkscape="http://www.inkscape.org/namespaces/inkscape"
   width="99.958801mm"
   height="99.958801mm"
   viewBox="0 0 99.958801 99.958801"
   version="1.1"
   id="svg8"
   sodipodi:docname="ms2pip_logo_inkscape.svg"
   inkscape:version="0.92.4 (5da689c313, 2019-01-14)">
  <defs
     id="defs2" />
  <sodipodi:namedview
     id="base"
     pagecolor="#ffffff"
     bordercolor="#666666"
     borderopacity="1.0"
     inkscape:pageopacity="0.0"
     inkscape:pageshadow="2"
     inkscape:zoom="0.98994949"
     inkscape:cx="-132.18548"
     inkscape:cy="268.00797"
     inkscape:document-units="mm"
     inkscape:current-layer="layer1"
     showgrid="false"
     inkscape:window-width="3362"
     inkscape:window-height="1417"
     inkscape:window-x="70"
     inkscape:window-y="-8"
     inkscape:window-maximized="1" />
  <metadata
     id="metadata5">
    <rdf:RDF>
      <cc:Work
         rdf:about="">
        <dc:format>image/svg+xml</dc:format>
        <dc:type
           rdf:resource="http://purl.org/dc/dcmitype/StillImage" />
        <dc:title></dc:title>
      </cc:Work>
    </rdf:RDF>
  </metadata>
  <g
     inkscape:label="Layer 1"
     inkscape:groupmode="layer"
     id="layer1"
     transform="translate(-55.020599,-98.520607)">
    <rect
       style="fill:#ffffff;fill-opacity:0;stroke-width:0.21700473"
       id="rect4528"
       width="99.958801"
       height="99.958801"
       x="55.020599"
       y="98.520607"
       inkscape:export-xdpi="254.10468"
       inkscape:export-ydpi="254.10468" />
    <ellipse
       style="fill:#15a387;fill-opacity:1;stroke-width:0.26458332"
       id="path4532"
       cx="105"
       cy="148.5"
       rx="49.979401"
       ry="49.979397" />
    <g
       aria-label="MS²PIP"
       transform="matrix(0.26458333,0,0,0.26458333,40.938575,37.884118)"
       style="font-style:normal;font-variant:normal;font-weight:300;font-stretch:normal;font-size:24px;line-height:1.25;font-family:Bahnschrift;-inkscape-font-specification:'Bahnschrift, Light';font-variant-ligatures:normal;font-variant-caps:normal;font-variant-numeric:normal;font-feature-settings:normal;text-align:start;letter-spacing:0px;word-spacing:0px;writing-mode:lr-tb;text-anchor:start;fill:#fafafa;fill-opacity:1;stroke:none"
       id="flowRoot3713">
      <path
         sodipodi:type="inkscape:offset"
         inkscape:radius="0"
         inkscape:original="M 230.88086 385.43555 C 226.95553 385.43555 223.62715 386.11904 220.89648 387.48438 C 218.16582 388.84971 216.11729 390.7259 214.75195 393.11523 L 223.0293 397.55273 C 223.71196 396.41495 224.62199 395.56107 225.75977 394.99219 C 226.95443 394.36641 228.31947 394.05469 229.85547 394.05469 C 231.50525 394.05469 232.72894 394.36641 233.52539 394.99219 C 234.32183 395.56107 234.7207 396.32976 234.7207 397.29688 C 234.7207 398.03643 234.46317 398.83221 233.95117 399.68555 C 233.43917 400.48199 232.473 401.47916 231.05078 402.67383 L 216.88477 414.875 L 216.88477 421.61719 L 247.34961 421.61719 L 247.34961 413.16992 L 232.8418 413.16992 L 239.32812 407.62305 C 241.94502 405.29061 243.73602 403.29822 244.70312 401.64844 C 245.67024 399.99866 246.1543 398.2638 246.1543 396.44336 C 246.1543 393.1438 244.76021 390.49892 241.97266 388.50781 C 239.1851 386.45981 235.48886 385.43555 230.88086 385.43555 z M 187.74609 388.59375 C 182.00031 388.59375 177.13456 389.44568 173.15234 391.15234 C 169.22701 392.85901 166.27041 395.19217 164.2793 398.15039 C 162.28818 401.05172 161.29102 404.322 161.29102 407.96289 C 161.29102 412.11578 162.37338 415.41705 164.53516 417.86328 C 166.69694 420.3095 169.28567 422.1005 172.30078 423.23828 C 175.31589 424.31917 179.07023 425.34343 183.56445 426.31055 C 187.66045 427.22077 190.61901 428.10174 192.43945 428.95508 C 194.31679 429.75152 195.25391 431.00427 195.25391 432.71094 C 195.25391 435.9536 192.01268 437.57422 185.52734 437.57422 C 182.11401 437.57422 178.64235 437.03402 175.11523 435.95312 C 171.58813 434.87224 168.48823 433.4491 165.81445 431.68555 L 160.26758 444.14453 C 163.11202 446.13564 166.81021 447.72916 171.36133 448.92383 C 175.91243 450.11849 180.60585 450.71484 185.44141 450.71484 C 191.13029 450.71484 195.96504 449.86292 199.94727 448.15625 C 203.92949 446.3927 206.91709 444.05954 208.9082 441.1582 C 210.89931 438.25687 211.89453 435.01369 211.89453 431.42969 C 211.89453 427.27679 210.78507 424.00652 208.56641 421.61719 C 206.40463 419.17097 203.81589 417.40706 200.80078 416.32617 C 197.84256 415.18839 194.08822 414.13704 189.53711 413.16992 C 185.498 412.31659 182.56849 411.49175 180.74805 410.69531 C 178.92761 409.89887 178.01758 408.70422 178.01758 407.11133 C 178.01758 405.51844 178.78431 404.23664 180.32031 403.26953 C 181.85631 402.24553 184.30372 401.73438 187.66016 401.73438 C 193.00772 401.73437 198.52596 403.2698 204.21484 406.3418 L 209.41992 393.79883 C 206.51859 392.09216 203.16117 390.81232 199.34961 389.95898 C 195.53806 389.04876 191.67143 388.59375 187.74609 388.59375 z M 83.115234 389.78711 L 83.115234 449.52148 L 98.732422 449.52148 L 98.732422 418.71484 L 114.00586 443.63281 L 121.51562 443.63281 L 136.875 417.86328 L 137.04688 449.52148 L 152.57812 449.52148 L 152.40625 389.78711 L 138.49805 389.78711 L 118.01758 424.26172 L 97.025391 389.78711 L 83.115234 389.78711 z M 256.2832 389.78711 L 256.2832 449.52148 L 273.17773 449.52148 L 273.17773 433.9043 L 283.58984 433.9043 C 288.99429 433.9043 293.6877 433.02332 297.66992 431.25977 C 301.65214 429.43932 304.72299 426.87963 306.88477 423.58008 C 309.04655 420.28052 310.12695 416.3829 310.12695 411.88867 C 310.12695 407.39445 309.04655 403.49878 306.88477 400.19922 C 304.72299 396.84278 301.65214 394.28114 297.66992 392.51758 C 293.6877 390.69714 288.99429 389.78711 283.58984 389.78711 L 256.2832 389.78711 z M 318.2832 389.78711 L 318.2832 449.52148 L 335.17773 449.52148 L 335.17773 389.78711 L 318.2832 389.78711 z M 347.2832 389.78711 L 347.2832 449.52148 L 364.17773 449.52148 L 364.17773 433.9043 L 374.58984 433.9043 C 379.99428 433.9043 384.6877 433.02332 388.66992 431.25977 C 392.65214 429.43932 395.72299 426.87963 397.88477 423.58008 C 400.04654 420.28052 401.12891 416.3829 401.12891 411.88867 C 401.12891 407.39445 400.04654 403.49878 397.88477 400.19922 C 395.72299 396.84278 392.65214 394.28114 388.66992 392.51758 C 384.6877 390.69714 379.99428 389.78711 374.58984 389.78711 L 347.2832 389.78711 z M 273.17773 403.09961 L 282.56445 403.09961 C 286.03467 403.09961 288.65246 403.8683 290.41602 405.4043 C 292.17957 406.9403 293.06055 409.10112 293.06055 411.88867 C 293.06055 414.67623 292.17957 416.839 290.41602 418.375 C 288.65246 419.85411 286.03467 420.59375 282.56445 420.59375 L 273.17773 420.59375 L 273.17773 403.09961 z M 364.17773 403.09961 L 373.56445 403.09961 C 377.03467 403.09961 379.65246 403.8683 381.41602 405.4043 C 383.17958 406.9403 384.06055 409.10112 384.06055 411.88867 C 384.06055 414.67623 383.17958 416.839 381.41602 418.375 C 379.65246 419.85411 377.03467 420.59375 373.56445 420.59375 L 364.17773 420.59375 L 364.17773 403.09961 z "
         style="font-style:normal;font-variant:normal;font-weight:normal;font-stretch:normal;font-size:85.33333588px;font-family:'Montserrat ExtraBold';-inkscape-font-specification:'Montserrat ExtraBold, ';fill:#fafafa;fill-opacity:1"
         id="path828"
         d="m 230.88086,385.43555 c -3.92533,0 -7.25371,0.68349 -9.98438,2.04883 -2.73066,1.36533 -4.77919,3.24152 -6.14453,5.63085 l 8.27735,4.4375 c 0.68266,-1.13778 1.59269,-1.99166 2.73047,-2.56054 1.19466,-0.62578 2.5597,-0.9375 4.0957,-0.9375 1.64978,0 2.87347,0.31172 3.66992,0.9375 0.79644,0.56888 1.19531,1.33757 1.19531,2.30469 0,0.73955 -0.25753,1.53533 -0.76953,2.38867 -0.512,0.79644 -1.47817,1.79361 -2.90039,2.98828 L 216.88477,414.875 v 6.74219 h 30.46484 v -8.44727 H 232.8418 l 6.48632,-5.54687 c 2.6169,-2.33244 4.4079,-4.32483 5.375,-5.97461 0.96712,-1.64978 1.45118,-3.38464 1.45118,-5.20508 0,-3.29956 -1.39409,-5.94444 -4.18164,-7.93555 -2.78756,-2.048 -6.4838,-3.07226 -11.0918,-3.07226 z m -43.13477,3.1582 c -5.74578,0 -10.61153,0.85193 -14.59375,2.55859 -3.92533,1.70667 -6.88193,4.03983 -8.87304,6.99805 -1.99112,2.90133 -2.98828,6.17161 -2.98828,9.8125 0,4.15289 1.08236,7.45416 3.24414,9.90039 2.16178,2.44622 4.75051,4.23722 7.76562,5.375 3.01511,1.08089 6.76945,2.10515 11.26367,3.07227 4.096,0.91022 7.05456,1.79119 8.875,2.64453 1.87734,0.79644 2.81446,2.04919 2.81446,3.75586 0,3.24266 -3.24123,4.86328 -9.72657,4.86328 -3.41333,0 -6.88499,-0.5402 -10.41211,-1.6211 -3.5271,-1.08088 -6.627,-2.50402 -9.30078,-4.26757 l -5.54687,12.45898 c 2.84444,1.99111 6.54263,3.58463 11.09375,4.7793 4.5511,1.19466 9.24452,1.79101 14.08008,1.79101 5.68888,0 10.52363,-0.85192 14.50586,-2.55859 3.98222,-1.76355 6.96982,-4.09671 8.96093,-6.99805 1.99111,-2.90133 2.98633,-6.14451 2.98633,-9.72851 0,-4.1529 -1.10946,-7.42317 -3.32812,-9.8125 -2.16178,-2.44622 -4.75052,-4.21013 -7.76563,-5.29102 -2.95822,-1.13778 -6.71256,-2.18913 -11.26367,-3.15625 -4.03911,-0.85333 -6.96862,-1.67817 -8.78906,-2.47461 -1.82044,-0.79644 -2.73047,-1.99109 -2.73047,-3.58398 0,-1.59289 0.76673,-2.87469 2.30273,-3.8418 1.536,-1.024 3.98341,-1.53515 7.33985,-1.53515 5.34756,-10e-6 10.8658,1.53542 16.55468,4.60742 l 5.20508,-12.54297 c -2.90133,-1.70667 -6.25875,-2.98651 -10.07031,-3.83985 -3.81155,-0.91022 -7.67818,-1.36523 -11.60352,-1.36523 z m -104.630856,1.19336 v 59.73437 h 15.617188 v -30.80664 l 15.273438,24.91797 h 7.50976 l 15.35938,-25.76953 0.17188,31.6582 h 15.53124 l -0.17187,-59.73437 h -13.9082 l -20.48047,34.47461 -20.992189,-34.47461 z m 173.167966,0 v 59.73437 h 16.89453 V 433.9043 h 10.41211 c 5.40445,0 10.09786,-0.88098 14.08008,-2.64453 3.98222,-1.82045 7.05307,-4.38014 9.21485,-7.67969 2.16178,-3.29956 3.24218,-7.19718 3.24218,-11.69141 0,-4.49422 -1.0804,-8.38989 -3.24218,-11.68945 -2.16178,-3.35644 -5.23263,-5.91808 -9.21485,-7.68164 -3.98222,-1.82044 -8.67563,-2.73047 -14.08008,-2.73047 z m 62,0 v 59.73437 h 16.89453 v -59.73437 z m 29,0 v 59.73437 h 16.89453 V 433.9043 h 10.41211 c 5.40444,0 10.09786,-0.88098 14.08008,-2.64453 3.98222,-1.82045 7.05307,-4.38014 9.21485,-7.67969 2.16177,-3.29956 3.24414,-7.19718 3.24414,-11.69141 0,-4.49422 -1.08237,-8.38989 -3.24414,-11.68945 -2.16178,-3.35644 -5.23263,-5.91808 -9.21485,-7.68164 -3.98222,-1.82044 -8.67564,-2.73047 -14.08008,-2.73047 z m -74.10547,13.3125 h 9.38672 c 3.47022,0 6.08801,0.76869 7.85157,2.30469 1.76355,1.536 2.64453,3.69682 2.64453,6.48437 0,2.78756 -0.88098,4.95033 -2.64453,6.48633 -1.76356,1.47911 -4.38135,2.21875 -7.85157,2.21875 h -9.38672 z m 91,0 h 9.38672 c 3.47022,0 6.08801,0.76869 7.85157,2.30469 1.76356,1.536 2.64453,3.69682 2.64453,6.48437 0,2.78756 -0.88097,4.95033 -2.64453,6.48633 -1.76356,1.47911 -4.38135,2.21875 -7.85157,2.21875 h -9.38672 z" />
    </g>
  </g>
</svg>
